<svg version="1.1" id="parsedown_logo"
     xmlns="http://www.w3.org/2000/svg" xmlns:xlink="http://www.w3.org/1999/xlink"
     width="500" height="500"
     viewBox="0 0 21 21"
     >

    <rect width="100%" height="100%" fill="white" />

    <rect x="0" y="5" width="4" height="1" fill="#eee" />
    <rect x="5" y="5" width="10" height="1" fill="#444" />
    <rect x="16" y="5" width="5" height="1" fill="#eee" />

    <g id="line2">
        <rect x="0" y="7" width="6" height="1" fill="#eee" />
        <rect x="7" y="7" width="2" height="1" fill="#444" />
        <rect x="10" y="7" width="3" height="1" fill="#eee" />
        <rect x="14" y="7" width="2" height="1" fill="#444" />
        <rect x="17" y="7" width="4" height="1" fill="#eee" />
    </g>

    <use href="#line2" y="2" />

    <rect x="0" y="11" width="6" height="1" fill="#eee" />
    <rect x="7" y="11" width="6" height="1" fill="#444" />
    <rect x="14" y="11" width="7" height="1" fill="#eee" />

    <rect x="0" y="13" width="6" height="1" fill="#eee" />
    <rect x="7" y="13" width="2" height="1" fill="#444" />
    <rect x="10" y="13" width="11" height="1" fill="#eee" />

    <rect x="0" y="15" width="4" height="1" fill="#eee" />
    <rect x="5" y="15" width="8" height="1" fill="#444" />
    <rect x="14" y="15" width="7" height="1" fill="#eee" />

</svg>

